# xmcd
#
# Track frame offsets: 
#        150
#        19175
#        45975
#
# Disc length: 941 seconds
#
# Revision: 0
# Processed by: cddbd v1.5.2PL0 Copyright (c) Steve Scherf et al.
# Submitted via: ExactAudioCopy v1.0b3
#
DISCID=1803ab03
DTITLE=Robben Ford - I'M A REAL MAN
DYEAR=1993
DGENRE=Blues
TTITLE0=I'm A Real Man (Radio Edit)
TTITLE1=Step On It
TTITLE2=I'm A Real Man
EXTD=
EXTT0=
EXTT1=
EXTT2=
PLAYORDER=
